C:\Users\israe\Dropbox\PhDWork\Simulation\code\PassiveMoments\Data\TrialKne_r_ankDor20hip0_ankPla15hip0_ankDor20hipExt15_rajagopalModel.mot
nRows=70
nColumns=4

name C:\Users\israe\Dropbox\PhDWork\Simulation\code\PassiveMoments\Data\TrialKne_r_ankDor20hip0_ankPla15hip0_ankDor20hipExt15_rajagopalModel.mot
datacolumns 4
datarows 70
range 0.0000000000 1.3838775510
endheader
time	hip_flexion_r	knee_angle_r	ankle_angle_r
        0.0000000000	        0.0000000000	        0.0000000000	       20.0000000000	
        0.0202040816	        0.0000000000	        1.4693877551	       20.0000000000	
        0.0404081633	        0.0000000000	        2.9387755102	       20.0000000000	
        0.0606122449	        0.0000000000	        4.4081632653	       20.0000000000	
        0.0808163265	        0.0000000000	        5.8775510204	       20.0000000000	
        0.1010204082	        0.0000000000	        7.3469387755	       20.0000000000	
        0.1212244898	        0.0000000000	        8.8163265306	       20.0000000000	
        0.1414285714	        0.0000000000	       10.2857142857	       20.0000000000	
        0.1616326531	        0.0000000000	       11.7551020408	       20.0000000000	
        0.1818367347	        0.0000000000	       13.2244897959	       20.0000000000	
        0.2020408163	        0.0000000000	       14.6938775510	       20.0000000000	
        0.2222448980	        0.0000000000	       16.1632653061	       20.0000000000	
        0.2424489796	        0.0000000000	       17.6326530612	       20.0000000000	
        0.2626530612	        0.0000000000	       19.1020408163	       20.0000000000	
        0.2828571429	        0.0000000000	       20.5714285714	       20.0000000000	
        0.3030612245	        0.0000000000	       22.0408163265	       20.0000000000	
        0.3232653061	        0.0000000000	       23.5102040816	       20.0000000000	
        0.3434693878	        0.0000000000	       24.9795918367	       20.0000000000	
        0.3636734694	        0.0000000000	       26.4489795918	       20.0000000000	
        0.3838775510	        0.0000000000	       27.9183673469	       20.0000000000	
        0.4040816327	        0.0000000000	       29.3877551020	       20.0000000000	
        0.4242857143	        0.0000000000	       30.8571428571	       20.0000000000	
        0.4444897959	        0.0000000000	       32.3265306122	       20.0000000000	
        0.4646938776	        0.0000000000	       33.7959183673	       20.0000000000	
        0.4848979592	        0.0000000000	       35.2653061224	       20.0000000000	
        0.5051020408	        0.0000000000	       36.7346938776	       20.0000000000	
        0.5253061224	        0.0000000000	       38.2040816327	       20.0000000000	
        0.5455102041	        0.0000000000	       39.6734693878	       20.0000000000	
        0.5657142857	        0.0000000000	       41.1428571429	       20.0000000000	
        0.5859183673	        0.0000000000	       42.6122448980	       20.0000000000	
        0.6061224490	        0.0000000000	       44.0816326531	       20.0000000000	
        0.6263265306	        0.0000000000	       45.5510204082	       20.0000000000	
        0.6465306122	        0.0000000000	       47.0204081633	       20.0000000000	
        0.6667346939	        0.0000000000	       48.4897959184	       20.0000000000	
        0.6869387755	        0.0000000000	       49.9591836735	       20.0000000000	
        0.7071428571	        0.0000000000	       51.4285714286	       20.0000000000	
        0.7273469388	        0.0000000000	       52.8979591837	       20.0000000000	
        0.7475510204	        0.0000000000	       54.3673469388	       20.0000000000	
        0.7677551020	        0.0000000000	       55.8367346939	       20.0000000000	
        0.7879591837	        0.0000000000	       57.3061224490	       20.0000000000	
        0.8081632653	        0.0000000000	       58.7755102041	       20.0000000000	
        0.8283673469	        0.0000000000	       60.2448979592	       20.0000000000	
        0.8485714286	        0.0000000000	       61.7142857143	       20.0000000000	
        0.8687755102	        0.0000000000	       63.1836734694	       20.0000000000	
        0.8889795918	        0.0000000000	       64.6530612245	       20.0000000000	
        0.9091836735	        0.0000000000	       66.1224489796	       20.0000000000	
        0.9293877551	        0.0000000000	       67.5918367347	       20.0000000000	
        0.9495918367	        0.0000000000	       69.0612244898	       20.0000000000	
        0.9697959184	        0.0000000000	       70.5306122449	       20.0000000000	
        0.9900000000	        0.0000000000	       72.0000000000	       20.0000000000	
        1.0000000000	        0.0000000000	        3.0000000000	      -15.0000000000	
        1.0202040816	        0.0000000000	        4.4693877551	      -15.0000000000	
        1.0404081633	        0.0000000000	        5.9387755102	      -15.0000000000	
        1.0606122449	        0.0000000000	        7.4081632653	      -15.0000000000	
        1.0808163265	        0.0000000000	        8.8775510204	      -15.0000000000	
        1.1010204082	        0.0000000000	       10.3469387755	      -15.0000000000	
        1.1212244898	        0.0000000000	       11.8163265306	      -15.0000000000	
        1.1414285714	        0.0000000000	       13.2857142857	      -15.0000000000	
        1.1616326531	        0.0000000000	       14.7551020408	      -15.0000000000	
        1.1818367347	        0.0000000000	       16.2244897959	      -15.0000000000	
        1.2020408163	        0.0000000000	       17.6938775510	      -15.0000000000	
        1.2222448980	        0.0000000000	       19.1632653061	      -15.0000000000	
        1.2424489796	        0.0000000000	       20.6326530612	      -15.0000000000	
        1.2626530612	        0.0000000000	       22.1020408163	      -15.0000000000	
        1.2828571429	        0.0000000000	       23.5714285714	      -15.0000000000	
        1.3030612245	        0.0000000000	       25.0408163265	      -15.0000000000	
        1.3232653061	        0.0000000000	       26.5102040816	      -15.0000000000	
        1.3434693878	        0.0000000000	       27.9795918367	      -15.0000000000	
        1.3636734694	        0.0000000000	       29.4489795918	      -15.0000000000	
        1.3838775510	        0.0000000000	       30.9183673469	      -15.0000000000	
